<?xml version="1.0" encoding="UTF-8"?>
<!DOCTYPE svg PUBLIC "-//W3C//DTD SVG 1.1//EN" "http://www.w3.org/Graphics/SVG/1.1/DTD/svg11.dtd">
<svg xmlns="http://www.w3.org/2000/svg" version="1.1" width="500px" height="500px" style="shape-rendering:geometricPrecision; text-rendering:geometricPrecision; image-rendering:optimizeQuality; fill-rule:evenodd; clip-rule:evenodd" xmlns:xlink="http://www.w3.org/1999/xlink">
<g><path style="opacity:1" fill="#000000" d="M -0.5,-0.5 C 166.167,-0.5 332.833,-0.5 499.5,-0.5C 499.5,166.167 499.5,332.833 499.5,499.5C 332.833,499.5 166.167,499.5 -0.5,499.5C -0.5,332.833 -0.5,166.167 -0.5,-0.5 Z"/></g>
<g><path style="opacity:1" fill="#9fad2e" d="M 188.5,46.5 C 204.931,47.1529 221.265,47.8195 237.5,48.5C 220.799,49.1518 204.466,48.4851 188.5,46.5 Z"/></g>
<g><path style="opacity:1" fill="#d0e13a" d="M 188.5,46.5 C 204.466,48.4851 220.799,49.1518 237.5,48.5C 238.167,48.8333 238.833,49.1667 239.5,49.5C 238.246,52.0934 236.58,54.4268 234.5,56.5C 227.825,56.3337 221.158,56.5004 214.5,57C 205.5,66 196.5,75 187.5,84C 175.833,84.6667 164.167,84.6667 152.5,84C 148.518,81.0485 148.518,78.0485 152.5,75C 163.167,74.6667 173.833,74.3333 184.5,74C 190.167,68.3333 195.833,62.6667 201.5,57C 197.5,56.3333 193.5,56.3333 189.5,57C 185.783,64.5213 179.783,67.188 171.5,65C 163.091,59.5689 161.258,52.4022 166,43.5C 171.479,37.908 177.645,37.0747 184.5,41C 186.464,42.451 187.797,44.2843 188.5,46.5 Z"/></g>
<g><path style="opacity:1" fill="#100f04" d="M 174.5,47.5 C 180.263,47.7827 181.93,50.616 179.5,56C 172.416,56.475 170.749,53.6417 174.5,47.5 Z"/></g>
<g><path style="opacity:1" fill="#a4cd5f" d="M 281.5,76.5 C 280.676,80.3123 280.176,84.3123 280,88.5C 276.962,91.3694 274.129,94.3694 271.5,97.5C 265.833,97.5 260.167,97.5 254.5,97.5C 256.795,94.7029 259.295,92.0362 262,89.5C 262.5,82.5079 262.666,75.5079 262.5,68.5C 263.491,74.979 263.824,81.6457 263.5,88.5C 266.5,88.5 269.5,88.5 272.5,88.5C 272.334,83.1563 272.501,77.8229 273,72.5C 277,68.5 281,64.5 285,60.5C 285.333,54.1667 285.667,47.8333 286,41.5C 289,37.5 292,37.5 295,41.5C 295.667,48.5 295.667,55.5 295,62.5C 290.997,67.6694 286.497,72.3361 281.5,76.5 Z"/></g>
<g><path style="opacity:1" fill="#8ec778" d="M 359.5,62.5 C 357.167,65.1667 354.833,67.8333 352.5,70.5C 351.167,71.1667 350.167,72.1667 349.5,73.5C 346.833,75.8333 344.167,78.1667 341.5,80.5C 339.034,79.3659 336.367,79.1993 333.5,80C 331.577,82.5149 329.91,85.1816 328.5,88C 331.322,91.6553 334.322,95.1553 337.5,98.5C 335.833,100.5 334.167,102.5 332.5,104.5C 329.52,101.856 326.52,99.189 323.5,96.5C 320.392,99.8666 317.392,103.367 314.5,107C 308.175,107.5 301.842,107.666 295.5,107.5C 297.631,106.686 299.964,106.186 302.5,106C 304.833,103.667 307.167,101.333 309.5,99C 304.649,98.8255 299.982,98.3255 295.5,97.5C 300.875,97.8282 306.208,97.4948 311.5,96.5C 316.919,87.9935 322.586,79.6601 328.5,71.5C 332.82,70.8885 337.153,70.2218 341.5,69.5C 345.499,62.171 351.499,59.8377 359.5,62.5 Z"/></g>
<g><path style="opacity:1" fill="#0d110b" d="M 352.5,70.5 C 358.651,71.1029 359.984,73.9362 356.5,79C 351.709,80.3803 349.376,78.547 349.5,73.5C 350.167,72.1667 351.167,71.1667 352.5,70.5 Z"/></g>
<g><path style="opacity:1" fill="#86c683" d="M 359.5,62.5 C 367.864,67.6117 369.697,74.6117 365,83.5C 359.146,89.0769 352.646,89.9102 345.5,86C 344.035,84.2258 342.702,82.3925 341.5,80.5C 344.167,78.1667 346.833,75.8333 349.5,73.5C 349.376,78.547 351.709,80.3803 356.5,79C 359.984,73.9362 358.651,71.1029 352.5,70.5C 354.833,67.8333 357.167,65.1667 359.5,62.5 Z"/></g>
<g><path style="opacity:1" fill="#bfdc4c" d="M 242.5,75.5 C 240.541,79.1261 237.874,82.1261 234.5,84.5C 208.305,88.5238 191.138,103.191 183,128.5C 180.959,134.958 181.126,141.292 183.5,147.5C 181.711,151.812 178.877,155.479 175,158.5C 174.536,157.906 174.369,157.239 174.5,156.5C 175.519,154.46 175.519,152.46 174.5,150.5C 169.975,154.192 165.308,157.692 160.5,161C 153.5,161.333 146.5,161.667 139.5,162C 134.492,170.82 127.492,172.82 118.5,168C 113.283,162.704 112.116,156.537 115,149.5C 119.959,143.385 126.126,141.885 133.5,145C 135.874,147.039 137.874,149.372 139.5,152C 145.5,152.667 151.5,152.667 157.5,152C 162.308,148.692 166.975,145.192 171.5,141.5C 172.48,138.914 172.813,136.247 172.5,133.5C 173.434,132.432 173.768,131.099 173.5,129.5C 168.5,129.5 163.5,129.5 158.5,129.5C 154.59,128.374 152.59,125.707 152.5,121.5C 155.833,120.167 158.167,117.833 159.5,114.5C 160.738,116.214 161.405,118.214 161.5,120.5C 166.5,120.5 171.5,120.5 176.5,120.5C 188.249,90.6152 210.249,75.6152 242.5,75.5 Z"/></g>
<g><path style="opacity:1" fill="#b1d65b" d="M 239.5,49.5 C 247.483,55.4858 255.149,61.8191 262.5,68.5C 262.666,75.5079 262.5,82.5079 262,89.5C 259.295,92.0362 256.795,94.7029 254.5,97.5C 251.167,97.5 247.833,97.5 244.5,97.5C 244.5,100.833 244.5,104.167 244.5,107.5C 241.87,109.628 239.37,111.961 237,114.5C 236.83,104.325 236.33,94.3249 235.5,84.5C 235.167,84.5 234.833,84.5 234.5,84.5C 237.874,82.1261 240.541,79.1261 242.5,75.5C 243.117,75.6107 243.617,75.944 244,76.5C 244.499,80.4862 244.666,84.4862 244.5,88.5C 247.5,88.5 250.5,88.5 253.5,88.5C 253.829,82.7945 253.495,77.1278 252.5,71.5C 246.429,66.4816 240.429,61.4816 234.5,56.5C 236.58,54.4268 238.246,52.0934 239.5,49.5 Z"/></g>
<g><path style="opacity:1" fill="#010201" d="M 234.5,84.5 C 234.833,84.5 235.167,84.5 235.5,84.5C 235.17,105.007 235.503,125.34 236.5,145.5C 241.575,150.873 247.241,155.539 253.5,159.5C 257.307,163.135 261.307,166.635 265.5,170C 271.825,170.5 278.158,170.666 284.5,170.5C 289.544,170.173 294.544,170.506 299.5,171.5C 298.607,174.084 298.274,176.751 298.5,179.5C 295.733,192.371 290.233,204.038 282,214.5C 281.667,209.833 281.333,205.167 281,200.5C 278.582,198.32 275.916,197.987 273,199.5C 272.832,208.186 272.332,216.852 271.5,225.5C 267.612,228.941 263.279,231.608 258.5,233.5C 258.5,225.167 258.5,216.833 258.5,208.5C 259.231,204.397 258.231,200.897 255.5,198C 251.847,197.227 248.347,196.06 245,194.5C 245.102,188.05 244.269,181.884 242.5,176C 239.975,175.104 237.808,175.604 236,177.5C 235.333,184.833 235.333,192.167 236,199.5C 239.825,202.945 244.325,204.945 249.5,205.5C 249.5,209.167 249.5,212.833 249.5,216.5C 249.5,223.833 249.5,231.167 249.5,238.5C 244.906,239.815 240.239,240.815 235.5,241.5C 235.5,238.167 235.5,234.833 235.5,231.5C 235.666,225.491 235.499,219.491 235,213.5C 229.066,210.353 222.9,207.687 216.5,205.5C 215.85,205.196 215.183,204.863 214.5,204.5C 213.334,189.845 213.167,175.178 214,160.5C 220.65,156.878 223.15,151.545 221.5,144.5C 217.726,135.179 211.06,132.346 201.5,136C 194.239,141.209 192.739,147.709 197,155.5C 198.758,157.765 200.925,159.432 203.5,160.5C 203.333,176.503 203.5,192.503 204,208.5C 205.129,210.141 206.629,211.141 208.5,211.5C 214.5,214.167 220.5,216.833 226.5,219.5C 226.5,227.5 226.5,235.5 226.5,243.5C 220.42,243.483 214.42,242.817 208.5,241.5C 202.323,238.581 196.656,234.914 191.5,230.5C 187.126,224.418 183.792,217.751 181.5,210.5C 181.666,205.489 181.499,200.489 181,195.5C 178.948,194.207 176.781,193.207 174.5,192.5C 172.355,192.262 170.688,191.262 169.5,189.5C 174.764,178.209 179.93,166.875 185,155.5C 185.885,152.462 185.385,149.795 183.5,147.5C 181.126,141.292 180.959,134.958 183,128.5C 191.138,103.191 208.305,88.5238 234.5,84.5 Z"/></g>
<g><path style="opacity:1" fill="#010100" d="M 285.5,98.5 C 285.5,119.5 285.5,140.5 285.5,161.5C 279.824,161.666 274.157,161.499 268.5,161C 265,158.331 261.667,155.498 258.5,152.5C 256.704,151.207 255.037,149.707 253.5,148C 259.167,147.667 264.833,147.333 270.5,147C 271.126,146.25 271.626,145.416 272,144.5C 272.825,134.325 272.658,124.325 271.5,114.5C 271.047,113.542 270.381,112.708 269.5,112C 261.507,111.5 253.507,111.334 245.5,111.5C 245.5,107.167 245.5,102.833 245.5,98.5C 258.833,98.5 272.167,98.5 285.5,98.5 Z"/></g>
<g><path style="opacity:1" fill="#99cf74" d="M 281.5,76.5 C 281.5,80.5 281.5,84.5 281.5,88.5C 285.182,88.3347 288.848,88.5014 292.5,89C 293.996,91.7142 294.996,94.5475 295.5,97.5C 299.982,98.3255 304.649,98.8255 309.5,99C 307.167,101.333 304.833,103.667 302.5,106C 299.964,106.186 297.631,106.686 295.5,107.5C 294.677,110.977 294.177,114.644 294,118.5C 291.667,120.833 289.333,123.167 287,125.5C 286.83,115.991 286.33,106.658 285.5,97.5C 280.833,97.5 276.167,97.5 271.5,97.5C 274.129,94.3694 276.962,91.3694 280,88.5C 280.176,84.3123 280.676,80.3123 281.5,76.5 Z"/></g>
<g><path style="opacity:1" fill="#2b3619" d="M 254.5,97.5 C 260.167,97.5 265.833,97.5 271.5,97.5C 276.167,97.5 280.833,97.5 285.5,97.5C 285.5,97.8333 285.5,98.1667 285.5,98.5C 272.167,98.5 258.833,98.5 245.5,98.5C 245.5,102.833 245.5,107.167 245.5,111.5C 244.566,110.432 244.232,109.099 244.5,107.5C 244.5,104.167 244.5,100.833 244.5,97.5C 247.833,97.5 251.167,97.5 254.5,97.5 Z"/></g>
<g><path style="opacity:1" fill="#7ec58f" d="M 337.5,98.5 C 338.962,99.4577 340.295,100.624 341.5,102C 354.167,102.333 366.833,102.667 379.5,103C 382.25,106.012 381.917,108.679 378.5,111C 365.167,111.667 351.833,111.667 338.5,111C 336.294,108.963 334.294,106.797 332.5,104.5C 334.167,102.5 335.833,100.5 337.5,98.5 Z"/></g>
<g><path style="opacity:1" fill="#c5d638" d="M 159.5,114.5 C 158.167,117.833 155.833,120.167 152.5,121.5C 151.962,119.883 151.629,118.216 151.5,116.5C 145.491,116.666 139.491,116.499 133.5,116C 130.582,112.528 130.915,109.528 134.5,107C 141.5,106.333 148.5,106.333 155.5,107C 158.024,108.883 159.358,111.383 159.5,114.5 Z"/></g>
<g><path style="opacity:1" fill="#030402" d="M 262.5,120.5 C 262.5,126.5 262.5,132.5 262.5,138.5C 256.5,138.5 250.5,138.5 244.5,138.5C 244.5,132.5 244.5,126.5 244.5,120.5C 250.5,120.5 256.5,120.5 262.5,120.5 Z"/></g>
<g><path style="opacity:1" fill="#a1d069" d="M 235.5,84.5 C 236.33,94.3249 236.83,104.325 237,114.5C 239.37,111.961 241.87,109.628 244.5,107.5C 244.232,109.099 244.566,110.432 245.5,111.5C 253.507,111.334 261.507,111.5 269.5,112C 270.381,112.708 271.047,113.542 271.5,114.5C 271.666,118.514 271.499,122.514 271,126.5C 268.667,128.833 266.333,131.167 264,133.5C 263.825,128.981 263.325,124.647 262.5,120.5C 256.5,120.5 250.5,120.5 244.5,120.5C 244.5,126.5 244.5,132.5 244.5,138.5C 241.874,140.823 239.207,143.157 236.5,145.5C 235.503,125.34 235.17,105.007 235.5,84.5 Z"/></g>
<g><path style="opacity:1" fill="#72bd94" d="M 328.5,125.5 C 331.631,128.129 334.631,130.962 337.5,134C 341.871,134.828 346.205,134.661 350.5,133.5C 354.345,125.772 360.345,123.439 368.5,126.5C 365.457,128.543 363.124,131.21 361.5,134.5C 360.5,135.167 359.5,135.833 358.5,136.5C 355.833,138.833 353.167,141.167 350.5,143.5C 344.824,143.666 339.157,143.499 333.5,143C 329.63,139.298 325.963,135.464 322.5,131.5C 325.5,130.5 327.5,128.5 328.5,125.5 Z"/></g>
<g><path style="opacity:1" fill="#91c772" d="M 271.5,114.5 C 272.658,124.325 272.825,134.325 272,144.5C 271.626,145.416 271.126,146.25 270.5,147C 264.833,147.333 259.167,147.667 253.5,148C 255.037,149.707 256.704,151.207 258.5,152.5C 257.246,155.093 255.58,157.427 253.5,159.5C 247.241,155.539 241.575,150.873 236.5,145.5C 239.207,143.157 241.874,140.823 244.5,138.5C 250.5,138.5 256.5,138.5 262.5,138.5C 262.5,132.5 262.5,126.5 262.5,120.5C 263.325,124.647 263.825,128.981 264,133.5C 266.333,131.167 268.667,128.833 271,126.5C 271.499,122.514 271.666,118.514 271.5,114.5 Z"/></g>
<g><path style="opacity:1" fill="#353d15" d="M 158.5,129.5 C 163.5,129.5 168.5,129.5 173.5,129.5C 173.768,131.099 173.434,132.432 172.5,133.5C 172.5,132.5 172.5,131.5 172.5,130.5C 167.637,130.819 162.97,130.486 158.5,129.5 Z"/></g>
<g><path style="opacity:1" fill="#293c28" d="M 320.5,130.5 C 312.167,130.5 303.833,130.5 295.5,130.5C 295.5,134.5 295.5,138.5 295.5,142.5C 301.69,142.177 307.69,142.51 313.5,143.5C 307.167,143.5 300.833,143.5 294.5,143.5C 294.5,138.833 294.5,134.167 294.5,129.5C 303.349,129.174 312.016,129.507 320.5,130.5 Z"/></g>
<g><path style="opacity:1" fill="#67b99f" d="M 368.5,126.5 C 375.539,129.582 378.039,134.916 376,142.5C 371.87,152.101 365.037,154.601 355.5,150C 353.235,148.242 351.568,146.075 350.5,143.5C 353.167,141.167 355.833,138.833 358.5,136.5C 358.924,142.803 361.757,144.469 367,141.5C 368.328,136.662 366.494,134.329 361.5,134.5C 363.124,131.21 365.457,128.543 368.5,126.5 Z"/></g>
<g><path style="opacity:1" fill="#0a100e" d="M 361.5,134.5 C 366.494,134.329 368.328,136.662 367,141.5C 361.757,144.469 358.924,142.803 358.5,136.5C 359.5,135.833 360.5,135.167 361.5,134.5 Z"/></g>
<g><path style="opacity:1" fill="#85c684" d="M 285.5,97.5 C 286.33,106.658 286.83,115.991 287,125.5C 289.333,123.167 291.667,120.833 294,118.5C 294.177,114.644 294.677,110.977 295.5,107.5C 295.5,111.833 295.5,116.167 295.5,120.5C 305.172,120.334 314.839,120.5 324.5,121C 326.041,122.371 327.375,123.871 328.5,125.5C 327.5,128.5 325.5,130.5 322.5,131.5C 321.833,131.167 321.167,130.833 320.5,130.5C 312.016,129.507 303.349,129.174 294.5,129.5C 294.5,134.167 294.5,138.833 294.5,143.5C 300.833,143.5 307.167,143.5 313.5,143.5C 315.749,144.08 317.415,145.413 318.5,147.5C 316.833,149.833 314.833,151.833 312.5,153.5C 306.925,152.548 301.259,152.214 295.5,152.5C 294.683,154.969 294.183,157.635 294,160.5C 290.629,163.703 287.462,167.036 284.5,170.5C 278.158,170.666 271.825,170.5 265.5,170C 261.307,166.635 257.307,163.135 253.5,159.5C 255.58,157.427 257.246,155.093 258.5,152.5C 261.667,155.498 265,158.331 268.5,161C 274.157,161.499 279.824,161.666 285.5,161.5C 285.5,140.5 285.5,119.5 285.5,98.5C 285.5,98.1667 285.5,97.8333 285.5,97.5 Z"/></g>
<g><path style="opacity:1" fill="#a7d162" d="M 221.5,144.5 C 221.649,145.552 221.483,146.552 221,147.5C 215.667,152.833 210.333,158.167 205,163.5C 204.768,162.263 204.268,161.263 203.5,160.5C 200.925,159.432 198.758,157.765 197,155.5C 192.739,147.709 194.239,141.209 201.5,136C 211.06,132.346 217.726,135.179 221.5,144.5 Z"/></g>
<g><path style="opacity:1" fill="#050703" d="M 206.5,143.5 C 212.643,144.026 213.976,146.86 210.5,152C 205.504,152.664 203.67,150.498 205,145.5C 205.717,144.956 206.217,144.289 206.5,143.5 Z"/></g>
<g><path style="opacity:1" fill="#060702" d="M 124.5,152.5 C 130.643,153.026 131.976,155.86 128.5,161C 123.504,161.664 121.67,159.498 123,154.5C 123.717,153.956 124.217,153.289 124.5,152.5 Z"/></g>
<g><path style="opacity:1" fill="#a9d15e" d="M 183.5,147.5 C 185.385,149.795 185.885,152.462 185,155.5C 179.93,166.875 174.764,178.209 169.5,189.5C 170.688,191.262 172.355,192.262 174.5,192.5C 173.167,195.833 170.833,198.167 167.5,199.5C 162.654,199.739 159.654,197.572 158.5,193C 163.19,180.463 168.523,168.296 174.5,156.5C 174.369,157.239 174.536,157.906 175,158.5C 178.877,155.479 181.711,151.812 183.5,147.5 Z"/></g>
<g><path style="opacity:1" fill="#59b4ad" d="M 348.5,179.5 C 351.167,176.5 353.833,173.5 356.5,170.5C 357.675,170.719 358.675,170.386 359.5,169.5C 364.77,161.153 371.77,159.319 380.5,164C 385.753,169.265 386.919,175.432 384,182.5C 378.965,188.471 372.798,189.971 365.5,187C 362.704,185.581 360.704,183.415 359.5,180.5C 355.893,179.511 352.226,179.177 348.5,179.5 Z"/></g>
<g><path style="opacity:1" fill="#78c191" d="M 295.5,152.5 C 295.5,155.5 295.5,158.5 295.5,161.5C 299.182,161.335 302.848,161.501 306.5,162C 308.34,164.826 309.006,167.993 308.5,171.5C 305.565,174.938 302.399,178.271 299,181.5C 298.536,180.906 298.369,180.239 298.5,179.5C 298.274,176.751 298.607,174.084 299.5,171.5C 294.544,170.506 289.544,170.173 284.5,170.5C 287.462,167.036 290.629,163.703 294,160.5C 294.183,157.635 294.683,154.969 295.5,152.5 Z"/></g>
<g><path style="opacity:1" fill="#90c069" d="M 221.5,144.5 C 223.15,151.545 220.65,156.878 214,160.5C 213.167,175.178 213.334,189.845 214.5,204.5C 215.183,204.863 215.85,205.196 216.5,205.5C 214.656,208.687 211.989,210.687 208.5,211.5C 206.629,211.141 205.129,210.141 204,208.5C 203.5,192.503 203.333,176.503 203.5,160.5C 204.268,161.263 204.768,162.263 205,163.5C 210.333,158.167 215.667,152.833 221,147.5C 221.483,146.552 221.649,145.552 221.5,144.5 Z"/></g>
<g><path style="opacity:1" fill="#6bbc9f" d="M 318.5,147.5 C 324.969,154.809 331.302,162.309 337.5,170C 343.825,170.5 350.158,170.666 356.5,170.5C 353.833,173.5 351.167,176.5 348.5,179.5C 343.489,179.666 338.489,179.499 333.5,179C 326.288,170.626 319.288,162.126 312.5,153.5C 314.833,151.833 316.833,149.833 318.5,147.5 Z"/></g>
<g><path style="opacity:1" fill="#070d0c" d="M 370.5,170.5 C 376.643,171.026 377.976,173.86 374.5,179C 367.344,178.856 366.011,176.023 370.5,170.5 Z"/></g>
<g><path style="opacity:1" fill="#6cbb9b" d="M 308.5,171.5 C 307.664,176.834 307.164,182.167 307,187.5C 308.812,189.3 310.645,190.967 312.5,192.5C 310.833,194.833 308.833,196.833 306.5,198.5C 305.518,197.859 304.518,197.193 303.5,196.5C 302.052,198.667 300.885,201 300,203.5C 299.501,209.157 299.334,214.824 299.5,220.5C 296.5,223.167 293.5,225.833 290.5,228.5C 290.665,225.482 290.498,222.482 290,219.5C 278.801,233.516 264.634,243.183 247.5,248.5C 250.898,243.594 254.898,239.094 259.5,235C 258.944,234.617 258.611,234.117 258.5,233.5C 263.279,231.608 267.612,228.941 271.5,225.5C 272.332,216.852 272.832,208.186 273,199.5C 275.916,197.987 278.582,198.32 281,200.5C 281.333,205.167 281.667,209.833 282,214.5C 290.233,204.038 295.733,192.371 298.5,179.5C 298.369,180.239 298.536,180.906 299,181.5C 302.399,178.271 305.565,174.938 308.5,171.5 Z"/></g>
<g><path style="opacity:1" fill="#63baa8" d="M 312.5,192.5 C 316.105,194.472 319.105,197.139 321.5,200.5C 321.666,206.509 321.499,212.509 321,218.5C 318.667,220.833 316.333,223.167 314,225.5C 313.829,218.321 313.329,211.321 312.5,204.5C 310.5,202.5 308.5,200.5 306.5,198.5C 308.833,196.833 310.833,194.833 312.5,192.5 Z"/></g>
<g><path style="opacity:1" fill="#82c487" d="M 258.5,208.5 C 255.5,211.167 252.5,213.833 249.5,216.5C 249.5,212.833 249.5,209.167 249.5,205.5C 244.325,204.945 239.825,202.945 236,199.5C 235.333,192.167 235.333,184.833 236,177.5C 237.808,175.604 239.975,175.104 242.5,176C 244.269,181.884 245.102,188.05 245,194.5C 248.347,196.06 251.847,197.227 255.5,198C 258.231,200.897 259.231,204.397 258.5,208.5 Z"/></g>
<g><path style="opacity:1" fill="#aad360" d="M 138.5,223.5 C 136.949,226.563 134.782,229.229 132,231.5C 131.768,230.263 131.268,229.263 130.5,228.5C 128.521,225.053 126.021,224.72 123,227.5C 121.672,232.338 123.506,234.671 128.5,234.5C 126.431,237.573 123.764,239.906 120.5,241.5C 117.572,240.409 115.406,238.409 114,235.5C 111.27,224.426 115.437,218.093 126.5,216.5C 132.001,216.348 136.001,218.681 138.5,223.5 Z"/></g>
<g><path style="opacity:1" fill="#81c68b" d="M 216.5,205.5 C 222.9,207.687 229.066,210.353 235,213.5C 235.499,219.491 235.666,225.491 235.5,231.5C 232.87,233.628 230.37,235.961 228,238.5C 227.828,231.987 227.328,225.653 226.5,219.5C 220.5,216.833 214.5,214.167 208.5,211.5C 211.989,210.687 214.656,208.687 216.5,205.5 Z"/></g>
<g><path style="opacity:1" fill="#0a0c05" d="M 130.5,228.5 C 130.747,230.858 130.081,232.858 128.5,234.5C 123.506,234.671 121.672,232.338 123,227.5C 126.021,224.72 128.521,225.053 130.5,228.5 Z"/></g>
<g><path style="opacity:1" fill="#9fcf6b" d="M 174.5,192.5 C 176.781,193.207 178.948,194.207 181,195.5C 181.499,200.489 181.666,205.489 181.5,210.5C 173.702,217.798 166.035,225.298 158.5,233C 151.987,233.172 145.653,233.672 139.5,234.5C 135.185,242.84 128.852,245.174 120.5,241.5C 123.764,239.906 126.431,237.573 128.5,234.5C 130.081,232.858 130.747,230.858 130.5,228.5C 131.268,229.263 131.768,230.263 132,231.5C 134.782,229.229 136.949,226.563 138.5,223.5C 144.215,225.55 150.215,226.05 156.5,225C 161.667,219.833 166.833,214.667 172,209.5C 172.667,206.833 172.667,204.167 172,201.5C 170.378,200.901 168.878,200.234 167.5,199.5C 170.833,198.167 173.167,195.833 174.5,192.5 Z"/></g>
<g><path style="opacity:1" fill="#8fc879" d="M 181.5,210.5 C 183.792,217.751 187.126,224.418 191.5,230.5C 176.535,245.965 161.368,261.299 146,276.5C 145.503,273.854 145.336,271.187 145.5,268.5C 157.479,256.187 169.479,243.854 181.5,231.5C 178.556,227.947 176.39,223.947 175,219.5C 170.167,224.333 165.333,229.167 160.5,234C 153.508,234.5 146.508,234.666 139.5,234.5C 145.653,233.672 151.987,233.172 158.5,233C 166.035,225.298 173.702,217.798 181.5,210.5 Z"/></g>
<g><path style="opacity:1" fill="#85c482" d="M 191.5,230.5 C 196.656,234.914 202.323,238.581 208.5,241.5C 206.761,244.243 204.427,246.243 201.5,247.5C 196.284,245.637 191.784,242.637 188,238.5C 176.667,249.833 165.333,261.167 154,272.5C 153.172,276.871 153.339,281.205 154.5,285.5C 162.551,290.063 164.718,296.73 161,305.5C 153.226,313.356 145.56,313.356 138,305.5C 133.65,297.184 135.484,290.518 143.5,285.5C 144.167,279.681 144.833,274.014 145.5,268.5C 145.336,271.187 145.503,273.854 146,276.5C 161.368,261.299 176.535,245.965 191.5,230.5 Z"/></g>
<g><path style="opacity:1" fill="#4ca7ac" d="M 321.5,200.5 C 322.493,209.318 322.827,218.318 322.5,227.5C 330.591,229.583 338.091,232.916 345,237.5C 345.499,242.823 345.666,248.156 345.5,253.5C 344.674,249.018 344.174,244.351 344,239.5C 341.667,241.833 339.333,244.167 337,246.5C 336.802,244.618 336.302,242.952 335.5,241.5C 328.022,239.176 320.855,236.176 314,232.5C 312.583,223.248 312.083,213.915 312.5,204.5C 313.329,211.321 313.829,218.321 314,225.5C 316.333,223.167 318.667,220.833 321,218.5C 321.499,212.509 321.666,206.509 321.5,200.5 Z"/></g>
<g><path style="opacity:1" fill="#59b6b1" d="M 299.5,220.5 C 299.333,233.837 299.5,247.171 300,260.5C 301.009,262.025 301.509,263.692 301.5,265.5C 299.427,267.58 297.093,269.246 294.5,270.5C 293.047,267.647 291.881,264.647 291,261.5C 290.5,250.505 290.333,239.505 290.5,228.5C 293.5,225.833 296.5,223.167 299.5,220.5 Z"/></g>
<g><path style="opacity:1" fill="#5bb5ad" d="M 279.5,283.5 C 277.833,285.833 275.833,287.833 273.5,289.5C 271.321,289.16 269.488,288.16 268,286.5C 267.667,282.5 267.333,278.5 267,274.5C 258.322,269.396 256.322,262.396 261,253.5C 265.491,248.741 270.991,247.241 277.5,249C 284.78,252.731 287.28,258.565 285,266.5C 283,269.833 280.333,272.5 277,274.5C 275.779,278.282 276.613,281.282 279.5,283.5 Z"/></g>
<g><path style="opacity:1" fill="#080e0d" d="M 269.5,257.5 C 276.225,257.204 277.891,259.871 274.5,265.5C 271.755,266.975 269.588,266.309 268,263.5C 267.252,261.16 267.752,259.16 269.5,257.5 Z"/></g>
<g><path style="opacity:1" fill="#3ea9c7" d="M 345.5,253.5 C 353.536,258.058 355.703,264.725 352,273.5C 345.402,280.585 338.236,281.252 330.5,275.5C 324.177,266.605 325.677,259.272 335,253.5C 335.499,249.514 335.666,245.514 335.5,241.5C 336.302,242.952 336.802,244.618 337,246.5C 339.333,244.167 341.667,241.833 344,239.5C 344.174,244.351 344.674,249.018 345.5,253.5 Z"/></g>
<g><path style="opacity:1" fill="#04080a" d="M 338.5,261.5 C 344.643,262.026 345.976,264.86 342.5,270C 339.099,271.135 337.099,269.968 336.5,266.5C 336.437,264.486 337.103,262.819 338.5,261.5 Z"/></g>
<g><path style="opacity:1" fill="#64b9a4" d="M 237.5,266.5 C 240.044,266.104 242.211,266.771 244,268.5C 244.667,274.5 244.667,280.5 244,286.5C 238.442,289.185 232.609,291.185 226.5,292.5C 226.666,298.176 226.499,303.843 226,309.5C 222.844,312.399 220.178,312.065 218,308.5C 217.333,301.167 217.333,293.833 218,286.5C 219.171,285.107 220.671,284.273 222.5,284C 226.816,283.004 231.149,282.17 235.5,281.5C 235.334,277.154 235.501,272.821 236,268.5C 236.717,267.956 237.217,267.289 237.5,266.5 Z"/></g>
<g><path style="opacity:1" fill="#74bd92" d="M 258.5,208.5 C 258.5,216.833 258.5,225.167 258.5,233.5C 258.611,234.117 258.944,234.617 259.5,235C 254.898,239.094 250.898,243.594 247.5,248.5C 240.979,250.463 234.313,251.796 227.5,252.5C 226.461,263.676 221.461,272.509 212.5,279C 205.616,282.275 198.616,285.275 191.5,288C 184.31,294.048 180.31,301.715 179.5,311C 173.922,312.09 171.589,309.756 172.5,304C 173.673,293.662 178.673,285.662 187.5,280C 194.833,276.667 202.167,273.333 209.5,270C 214.827,265 217.16,259 216.5,252C 210.966,251.872 205.966,250.372 201.5,247.5C 204.427,246.243 206.761,244.243 208.5,241.5C 214.42,242.817 220.42,243.483 226.5,243.5C 226.5,235.5 226.5,227.5 226.5,219.5C 227.328,225.653 227.828,231.987 228,238.5C 230.37,235.961 232.87,233.628 235.5,231.5C 235.5,234.833 235.5,238.167 235.5,241.5C 240.239,240.815 244.906,239.815 249.5,238.5C 249.5,231.167 249.5,223.833 249.5,216.5C 252.5,213.833 255.5,211.167 258.5,208.5 Z"/></g>
<g><path style="opacity:1" fill="#48acbc" d="M 301.5,265.5 C 303.033,267.355 304.7,269.188 306.5,271C 310.58,273.029 314.246,275.529 317.5,278.5C 315.427,280.58 313.093,282.246 310.5,283.5C 303.952,280.614 298.618,276.281 294.5,270.5C 297.093,269.246 299.427,267.58 301.5,265.5 Z"/></g>
<g><path style="opacity:1" fill="#3aa8cb" d="M 317.5,278.5 C 326.514,287.894 328.848,298.728 324.5,311C 321.975,311.896 319.808,311.396 318,309.5C 319.201,299.618 316.701,290.952 310.5,283.5C 313.093,282.246 315.427,280.58 317.5,278.5 Z"/></g>
<g><path style="opacity:1" fill="#46abbc" d="M 279.5,283.5 C 284.51,285.421 289.343,287.755 294,290.5C 296,296.833 296,303.167 294,309.5C 292.192,311.396 290.025,311.896 287.5,311C 285.967,306.012 284.967,300.846 284.5,295.5C 280.611,293.726 276.945,291.726 273.5,289.5C 275.833,287.833 277.833,285.833 279.5,283.5 Z"/></g>
<g><path style="opacity:1" fill="#4da5a7" d="M 255.5,289.5 C 257.527,289.338 259.527,289.505 261.5,290C 262.126,290.75 262.626,291.584 263,292.5C 263.667,297.833 263.667,303.167 263,308.5C 260.048,312.482 257.048,312.482 254,308.5C 253.333,302.833 253.333,297.167 254,291.5C 254.717,290.956 255.217,290.289 255.5,289.5 Z"/></g>
<g><path style="opacity:1" fill="#0a0f0b" d="M 147.5,293.5 C 153.643,294.026 154.976,296.86 151.5,302C 146.824,302.986 144.658,301.152 145,296.5C 145.698,295.309 146.531,294.309 147.5,293.5 Z"/></g>
<g><path style="opacity:1" fill="#502f92" d="M 235.5,338.5 C 235.5,337.167 235.5,335.833 235.5,334.5C 230.167,334.5 224.833,334.5 219.5,334.5C 219.5,335.833 219.5,337.167 219.5,338.5C 221.167,338.5 222.833,338.5 224.5,338.5C 224.5,345.5 224.5,352.5 224.5,359.5C 223.509,353.021 223.176,346.354 223.5,339.5C 221.833,339.5 220.167,339.5 218.5,339.5C 218.5,337.5 218.5,335.5 218.5,333.5C 224.5,333.5 230.5,333.5 236.5,333.5C 236.784,335.415 236.451,337.081 235.5,338.5 Z"/></g>
<g><path style="opacity:1" fill="#543199" d="M 295.5,334.5 C 300.64,333.512 305.974,333.179 311.5,333.5C 311.784,335.415 311.451,337.081 310.5,338.5C 310.5,337.167 310.5,335.833 310.5,334.5C 305.5,334.5 300.5,334.5 295.5,334.5 Z"/></g>
<g><path style="opacity:1" fill="#502f92" d="M 360.5,338.5 C 360.5,337.167 360.5,335.833 360.5,334.5C 355.167,334.5 349.833,334.5 344.5,334.5C 344.5,335.833 344.5,337.167 344.5,338.5C 346.167,338.5 347.833,338.5 349.5,338.5C 349.5,345.5 349.5,352.5 349.5,359.5C 348.509,353.021 348.176,346.354 348.5,339.5C 346.833,339.5 345.167,339.5 343.5,339.5C 343.5,337.5 343.5,335.5 343.5,333.5C 349.5,333.5 355.5,333.5 361.5,333.5C 361.784,335.415 361.451,337.081 360.5,338.5 Z"/></g>
<g><path style="opacity:1" fill="#844df0" d="M 144.5,333.5 C 147.5,333.5 150.5,333.5 153.5,333.5C 155.502,342.173 157.502,350.84 159.5,359.5C 157.167,359.5 154.833,359.5 152.5,359.5C 152.5,358.167 152.5,356.833 152.5,355.5C 150.167,355.5 147.833,355.5 145.5,355.5C 145.5,356.833 145.5,358.167 145.5,359.5C 143.167,359.5 140.833,359.5 138.5,359.5C 139.87,350.686 141.87,342.019 144.5,333.5 Z"/></g>
<g><path style="opacity:1" fill="#8950f9" d="M 166.5,333.5 C 168.833,333.5 171.167,333.5 173.5,333.5C 173.5,342.167 173.5,350.833 173.5,359.5C 171.167,359.5 168.833,359.5 166.5,359.5C 166.5,350.833 166.5,342.167 166.5,333.5 Z"/></g>
<g><path style="opacity:1" fill="#814beb" d="M 211.5,336.5 C 211.5,338.167 211.5,339.833 211.5,341.5C 209.5,341.5 207.5,341.5 205.5,341.5C 204.842,340.602 204.176,339.602 203.5,338.5C 202.534,340.396 202.201,342.396 202.5,344.5C 211.568,343.595 214.734,347.595 212,356.5C 211.167,357.333 210.333,358.167 209.5,359C 205.5,359.667 201.5,359.667 197.5,359C 194.959,357.152 193.959,354.652 194.5,351.5C 197.167,351.5 199.833,351.5 202.5,351.5C 202.5,352.5 202.5,353.5 202.5,354.5C 203.5,354.5 204.5,354.5 205.5,354.5C 205.5,352.833 205.5,351.167 205.5,349.5C 195.667,350.489 192.167,346.156 195,336.5C 197.041,334.026 199.708,333.026 203,333.5C 204.833,333.667 206.667,333.833 208.5,334C 209.942,334.377 210.942,335.21 211.5,336.5 Z"/></g>
<g><path style="opacity:1" fill="#8c52ff" d="M 235.5,338.5 C 233.833,338.5 232.167,338.5 230.5,338.5C 230.5,345.5 230.5,352.5 230.5,359.5C 228.5,359.5 226.5,359.5 224.5,359.5C 224.5,352.5 224.5,345.5 224.5,338.5C 222.833,338.5 221.167,338.5 219.5,338.5C 219.5,337.167 219.5,335.833 219.5,334.5C 224.833,334.5 230.167,334.5 235.5,334.5C 235.5,335.833 235.5,337.167 235.5,338.5 Z"/></g>
<g><path style="opacity:1" fill="#4e2d8f" d="M 250.5,354.5 C 249.509,348.021 249.176,341.354 249.5,334.5C 247.5,334.5 245.5,334.5 243.5,334.5C 243.5,341.833 243.5,349.167 243.5,356.5C 242.508,349.018 242.175,341.352 242.5,333.5C 245.167,333.5 247.833,333.5 250.5,333.5C 250.5,340.5 250.5,347.5 250.5,354.5 Z"/></g>
<g><path style="opacity:1" fill="#8a50fb" d="M 243.5,356.5 C 243.5,349.167 243.5,341.833 243.5,334.5C 245.5,334.5 247.5,334.5 249.5,334.5C 249.176,341.354 249.509,348.021 250.5,354.5C 251.5,354.5 252.5,354.5 253.5,354.5C 253.5,347.5 253.5,340.5 253.5,333.5C 255.833,333.5 258.167,333.5 260.5,333.5C 260.666,341.507 260.5,349.507 260,357.5C 255.391,359.51 250.558,360.01 245.5,359C 244.244,358.583 243.577,357.75 243.5,356.5 Z"/></g>
<g><path style="opacity:1" fill="#864ef5" d="M 269.5,333.5 C 274.959,333.103 280.292,333.603 285.5,335C 286,335.5 286.5,336 287,336.5C 287.667,343.167 287.667,349.833 287,356.5C 286.167,357.333 285.333,358.167 284.5,359C 279.511,359.499 274.511,359.666 269.5,359.5C 269.5,350.833 269.5,342.167 269.5,333.5 Z"/></g>
<g><path style="opacity:1" fill="#8a51fc" d="M 295.5,334.5 C 300.5,334.5 305.5,334.5 310.5,334.5C 310.5,335.833 310.5,337.167 310.5,338.5C 307.833,338.5 305.167,338.5 302.5,338.5C 302.5,340.5 302.5,342.5 302.5,344.5C 304.833,344.5 307.167,344.5 309.5,344.5C 309.5,345.833 309.5,347.167 309.5,348.5C 306.941,348.198 304.607,348.532 302.5,349.5C 302.5,351.167 302.5,352.833 302.5,354.5C 305.5,354.5 308.5,354.5 311.5,354.5C 311.5,356.167 311.5,357.833 311.5,359.5C 306.167,359.5 300.833,359.5 295.5,359.5C 295.5,351.167 295.5,342.833 295.5,334.5 Z"/></g>
<g><path style="opacity:1" fill="#5b35a7" d="M 325.5,334.5 C 323.5,334.5 321.5,334.5 319.5,334.5C 319.5,342.833 319.5,351.167 319.5,359.5C 318.507,351.016 318.174,342.349 318.5,333.5C 321.059,333.198 323.393,333.532 325.5,334.5 Z"/></g>
<g><path style="opacity:1" fill="#8850f9" d="M 325.5,334.5 C 326.701,338.263 328.201,341.93 330,345.5C 330.499,341.848 330.665,338.182 330.5,334.5C 332.5,334.5 334.5,334.5 336.5,334.5C 336.5,342.833 336.5,351.167 336.5,359.5C 334.396,359.799 332.396,359.466 330.5,358.5C 329.097,355.125 327.597,351.791 326,348.5C 325.501,352.152 325.335,355.818 325.5,359.5C 323.5,359.5 321.5,359.5 319.5,359.5C 319.5,351.167 319.5,342.833 319.5,334.5C 321.5,334.5 323.5,334.5 325.5,334.5 Z"/></g>
<g><path style="opacity:1" fill="#412677" d="M 330.5,334.5 C 332.607,333.532 334.941,333.198 337.5,333.5C 337.826,342.349 337.493,351.016 336.5,359.5C 336.5,351.167 336.5,342.833 336.5,334.5C 334.5,334.5 332.5,334.5 330.5,334.5 Z"/></g>
<g><path style="opacity:1" fill="#8c52ff" d="M 360.5,338.5 C 358.833,338.5 357.167,338.5 355.5,338.5C 355.5,345.5 355.5,352.5 355.5,359.5C 353.5,359.5 351.5,359.5 349.5,359.5C 349.5,352.5 349.5,345.5 349.5,338.5C 347.833,338.5 346.167,338.5 344.5,338.5C 344.5,337.167 344.5,335.833 344.5,334.5C 349.833,334.5 355.167,334.5 360.5,334.5C 360.5,335.833 360.5,337.167 360.5,338.5 Z"/></g>
<g><path style="opacity:1" fill="#110918" d="M 276.5,338.5 C 277.833,338.5 279.167,338.5 280.5,338.5C 280.5,343.833 280.5,349.167 280.5,354.5C 279.167,354.5 277.833,354.5 276.5,354.5C 276.5,349.167 276.5,343.833 276.5,338.5 Z"/></g>
<g><path style="opacity:1" fill="#341e5e" d="M 235.5,338.5 C 234.432,339.434 233.099,339.768 231.5,339.5C 231.824,346.354 231.491,353.021 230.5,359.5C 230.5,352.5 230.5,345.5 230.5,338.5C 232.167,338.5 233.833,338.5 235.5,338.5 Z"/></g>
<g><path style="opacity:1" fill="#341e5e" d="M 360.5,338.5 C 359.432,339.434 358.099,339.768 356.5,339.5C 356.824,346.354 356.491,353.021 355.5,359.5C 355.5,352.5 355.5,345.5 355.5,338.5C 357.167,338.5 358.833,338.5 360.5,338.5 Z"/></g>
<g><path style="opacity:1" fill="#3e2470" d="M 211.5,336.5 C 212.461,338.265 212.795,340.265 212.5,342.5C 209.941,342.802 207.607,342.468 205.5,341.5C 207.5,341.5 209.5,341.5 211.5,341.5C 211.5,339.833 211.5,338.167 211.5,336.5 Z"/></g>
<g><path style="opacity:1" fill="#120a19" d="M 148.5,342.5 C 149.266,344.684 149.933,347.018 150.5,349.5C 149.675,350.386 148.675,350.719 147.5,350.5C 147.401,347.763 147.735,345.096 148.5,342.5 Z"/></g>
<g><path style="opacity:1" fill="#472981" d="M 309.5,344.5 C 310.451,345.919 310.784,347.585 310.5,349.5C 307.833,349.5 305.167,349.5 302.5,349.5C 304.607,348.532 306.941,348.198 309.5,348.5C 309.5,347.167 309.5,345.833 309.5,344.5 Z"/></g>
<g><path style="opacity:1" fill="#d7e02e" d="M 170.5,378.5 C 174.437,378.207 178.27,378.54 182,379.5C 182.667,382.5 182.667,385.5 182,388.5C 180.211,390.229 178.044,390.896 175.5,390.5C 175.5,392.167 175.5,393.833 175.5,395.5C 173.833,395.5 172.167,395.5 170.5,395.5C 170.5,389.833 170.5,384.167 170.5,378.5 Z"/></g>
<g><path style="opacity:1" fill="#cdd72c" d="M 188.5,377.5 C 190.167,377.5 191.833,377.5 193.5,377.5C 193.5,379.167 193.5,380.833 193.5,382.5C 195.792,382.244 197.959,382.577 200,383.5C 200.499,387.486 200.666,391.486 200.5,395.5C 198.833,395.5 197.167,395.5 195.5,395.5C 194.833,382.167 194.167,382.167 193.5,395.5C 191.833,395.5 190.167,395.5 188.5,395.5C 188.5,389.5 188.5,383.5 188.5,377.5 Z"/></g>
<g><path style="opacity:1" fill="#d8e12e" d="M 211.5,380.5 C 209.833,380.5 208.167,380.5 206.5,380.5C 206.5,379.5 206.5,378.5 206.5,377.5C 208.167,377.5 209.833,377.5 211.5,377.5C 211.5,378.5 211.5,379.5 211.5,380.5 Z"/></g>
<g><path style="opacity:1" fill="#e1eb30" d="M 218.5,377.5 C 219.833,377.5 221.167,377.5 222.5,377.5C 222.5,383.5 222.5,389.5 222.5,395.5C 221.167,395.5 219.833,395.5 218.5,395.5C 218.5,389.5 218.5,383.5 218.5,377.5 Z"/></g>
<g><path style="opacity:1" fill="#d8e12e" d="M 234.5,380.5 C 232.833,380.5 231.167,380.5 229.5,380.5C 229.5,379.5 229.5,378.5 229.5,377.5C 231.167,377.5 232.833,377.5 234.5,377.5C 234.5,378.5 234.5,379.5 234.5,380.5 Z"/></g>
<g><path style="opacity:1" fill="#d4de2e" d="M 259.5,393.5 C 259.5,392.5 259.5,391.5 259.5,390.5C 260.833,390.5 262.167,390.5 263.5,390.5C 263.56,391.043 263.893,391.376 264.5,391.5C 265.386,390.675 265.719,389.675 265.5,388.5C 263.208,388.756 261.041,388.423 259,387.5C 258.333,384.833 258.333,382.167 259,379.5C 262.409,378.378 265.909,378.211 269.5,379C 270.38,380.356 270.714,381.856 270.5,383.5C 268.179,383.771 266.179,383.104 264.5,381.5C 263.571,382.689 263.238,384.022 263.5,385.5C 270.359,384.873 272.359,387.873 269.5,394.5C 266.562,395.575 263.562,395.741 260.5,395C 259.944,394.617 259.611,394.117 259.5,393.5 Z"/></g>
<g><path style="opacity:1" fill="#d8e22e" d="M 324.5,395.5 C 324.665,392.15 324.498,388.817 324,385.5C 323.59,386.901 323.09,388.234 322.5,389.5C 322.38,390.586 321.713,391.253 320.5,391.5C 319.584,391.457 318.917,391.124 318.5,390.5C 318.108,388.821 317.608,387.154 317,385.5C 316.502,388.817 316.335,392.15 316.5,395.5C 315.167,395.5 313.833,395.5 312.5,395.5C 312.5,389.833 312.5,384.167 312.5,378.5C 314.5,378.5 316.5,378.5 318.5,378.5C 319.833,386.5 321.167,386.5 322.5,378.5C 324.5,378.5 326.5,378.5 328.5,378.5C 328.5,384.167 328.5,389.833 328.5,395.5C 327.167,395.5 325.833,395.5 324.5,395.5 Z"/></g>
<g><path style="opacity:1" fill="#535711" d="M 206.5,380.5 C 208.167,380.5 209.833,380.5 211.5,380.5C 211.5,381.167 211.5,381.833 211.5,382.5C 209.833,382.5 208.167,382.5 206.5,382.5C 206.5,381.833 206.5,381.167 206.5,380.5 Z"/></g>
<g><path style="opacity:1" fill="#535711" d="M 229.5,380.5 C 231.167,380.5 232.833,380.5 234.5,380.5C 234.5,381.167 234.5,381.833 234.5,382.5C 232.833,382.5 231.167,382.5 229.5,382.5C 229.5,381.833 229.5,381.167 229.5,380.5 Z"/></g>
<g><path style="opacity:1" fill="#0f0e03" d="M 175.5,381.5 C 176.649,381.791 177.316,382.624 177.5,384C 177.167,384.833 176.833,385.667 176.5,386.5C 175.548,384.955 175.215,383.288 175.5,381.5 Z"/></g>
<g><path style="opacity:1" fill="#d4de2d" d="M 206.5,382.5 C 208.167,382.5 209.833,382.5 211.5,382.5C 211.5,386.833 211.5,391.167 211.5,395.5C 209.833,395.5 208.167,395.5 206.5,395.5C 206.5,391.167 206.5,386.833 206.5,382.5 Z"/></g>
<g><path style="opacity:1" fill="#d4de2d" d="M 229.5,382.5 C 231.167,382.5 232.833,382.5 234.5,382.5C 234.5,386.833 234.5,391.167 234.5,395.5C 232.833,395.5 231.167,395.5 229.5,395.5C 229.5,391.167 229.5,386.833 229.5,382.5 Z"/></g>
<g><path style="opacity:1" fill="#ccd52d" d="M 246.5,395.5 C 245.493,395.452 245.16,396.452 245.5,398.5C 244.167,398.5 242.833,398.5 241.5,398.5C 241.5,393.167 241.5,387.833 241.5,382.5C 245.106,382.211 248.606,382.544 252,383.5C 252.825,387.211 252.659,390.878 251.5,394.5C 249.929,395.309 248.262,395.643 246.5,395.5 Z"/></g>
<g><path style="opacity:1" fill="#d9e32e" d="M 277.5,382.5 C 280.833,382.5 284.167,382.5 287.5,382.5C 287.5,386.833 287.5,391.167 287.5,395.5C 276.785,397.081 273.451,392.748 277.5,382.5 Z"/></g>
<g><path style="opacity:1" fill="#939a20" d="M 299.5,382.5 C 298.167,382.5 296.833,382.5 295.5,382.5C 295.5,386.833 295.5,391.167 295.5,395.5C 294.514,391.03 294.181,386.363 294.5,381.5C 296.415,381.216 298.081,381.549 299.5,382.5 Z"/></g>
<g><path style="opacity:1" fill="#e0e930" d="M 299.5,382.5 C 301.467,382.261 303.301,382.594 305,383.5C 305.499,387.486 305.666,391.486 305.5,395.5C 304.167,395.5 302.833,395.5 301.5,395.5C 300.833,382.167 300.167,382.167 299.5,395.5C 298.167,395.5 296.833,395.5 295.5,395.5C 295.5,391.167 295.5,386.833 295.5,382.5C 296.833,382.5 298.167,382.5 299.5,382.5 Z"/></g>
<g><path style="opacity:1" fill="#454714" d="M 281.5,385.5 C 282.725,386.152 283.392,387.319 283.5,389C 283.167,390.167 282.833,391.333 282.5,392.5C 281.526,390.257 281.192,387.924 281.5,385.5 Z"/></g>
<g><path style="opacity:1" fill="#4d5110" d="M 318.5,390.5 C 317.833,392.167 317.167,393.833 316.5,395.5C 316.335,392.15 316.502,388.817 317,385.5C 317.608,387.154 318.108,388.821 318.5,390.5 Z"/></g>
<g><path style="opacity:1" fill="#575b13" d="M 324.5,395.5 C 323.833,393.5 323.167,391.5 322.5,389.5C 323.09,388.234 323.59,386.901 324,385.5C 324.498,388.817 324.665,392.15 324.5,395.5 Z"/></g>
<g><path style="opacity:1" fill="#6c7117" d="M 263.5,390.5 C 262.167,390.5 260.833,390.5 259.5,390.5C 259.5,391.5 259.5,392.5 259.5,393.5C 258.566,392.432 258.232,391.099 258.5,389.5C 260.415,389.216 262.081,389.549 263.5,390.5 Z"/></g>
<g><path style="opacity:1" fill="#6d7117" d="M 246.5,395.5 C 246.5,396.833 246.5,398.167 246.5,399.5C 244.585,399.784 242.919,399.451 241.5,398.5C 242.833,398.5 244.167,398.5 245.5,398.5C 245.16,396.452 245.493,395.452 246.5,395.5 Z"/></g>
</svg>
