<?xml version="1.0" encoding="UTF-8"?>
<!DOCTYPE svg PUBLIC "-//W3C//DTD SVG 1.1//EN" "http://www.w3.org/Graphics/SVG/1.1/DTD/svg11.dtd">
<svg xmlns="http://www.w3.org/2000/svg" version="1.1" width="150px" height="51px" style="shape-rendering:geometricPrecision; text-rendering:geometricPrecision; image-rendering:optimizeQuality; fill-rule:evenodd; clip-rule:evenodd" xmlns:xlink="http://www.w3.org/1999/xlink">
<g><path style="opacity:1" fill="#010200" d="M -0.5,-0.5 C 49.5,-0.5 99.5,-0.5 149.5,-0.5C 149.5,16.5 149.5,33.5 149.5,50.5C 99.5,50.5 49.5,50.5 -0.5,50.5C -0.5,33.5 -0.5,16.5 -0.5,-0.5 Z"/></g>
<g><path style="opacity:1" fill="#b3cc11" d="M 2.5,14.5 C 5.51838,14.3354 8.51838,14.502 11.5,15C 13.4439,17.1529 13.9439,19.6529 13,22.5C 11.5557,24.1554 9.72241,24.822 7.5,24.5C 7.5,26.5 7.5,28.5 7.5,30.5C 5.83333,30.5 4.16667,30.5 2.5,30.5C 2.5,25.1667 2.5,19.8333 2.5,14.5 Z"/></g>
<g><path style="opacity:1" fill="#b7d110" d="M 24.5,20.5 C 24.5,23.5 24.5,26.5 24.5,29.5C 23.4324,30.4345 22.099,30.7678 20.5,30.5C 20.81,27.2869 20.4767,24.2869 19.5,21.5C 18.5269,23.9479 18.1936,26.6146 18.5,29.5C 17.1667,29.5 15.8333,29.5 14.5,29.5C 14.5,24.5 14.5,19.5 14.5,14.5C 16.1667,14.5 17.8333,14.5 19.5,14.5C 19.5,15.5 19.5,16.5 19.5,17.5C 22.285,16.9162 23.9517,17.9162 24.5,20.5 Z"/></g>
<g><path style="opacity:1" fill="#c0db10" d="M 36.5,14.5 C 36.5,19.5 36.5,24.5 36.5,29.5C 35.1667,29.5 33.8333,29.5 32.5,29.5C 32.5,24.5 32.5,19.5 32.5,14.5C 33.8333,14.5 35.1667,14.5 36.5,14.5 Z"/></g>
<g><path style="opacity:1" fill="#5a6708" d="M 36.5,14.5 C 37.4881,19.6405 37.8214,24.9738 37.5,30.5C 35.5853,30.7845 33.9187,30.4511 32.5,29.5C 33.8333,29.5 35.1667,29.5 36.5,29.5C 36.5,24.5 36.5,19.5 36.5,14.5 Z"/></g>
<g><path style="opacity:1" fill="#b3cc0f" d="M 65.5,22.5 C 65.5,24.1667 65.5,25.8333 65.5,27.5C 65.0472,28.4584 64.3805,29.2917 63.5,30C 61.1902,30.4966 58.8568,30.6633 56.5,30.5C 56.3379,28.4727 56.5045,26.4727 57,24.5C 57.9653,26.2603 59.132,26.5937 60.5,25.5C 59.6533,24.1552 58.4866,23.1552 57,22.5C 54.9403,15.5619 57.4403,12.7286 64.5,14C 65.7472,15.4936 65.7472,16.9936 64.5,18.5C 63.3914,17.4104 62.3914,17.4104 61.5,18.5C 62.8665,19.84 64.1999,21.1733 65.5,22.5 Z"/></g>
<g><path style="opacity:1" fill="#7e900b" d="M 94.5,14.5 C 93.1667,14.5 91.8333,14.5 90.5,14.5C 90.5,19.5 90.5,24.5 90.5,29.5C 91.8333,29.5 93.1667,29.5 94.5,29.5C 93.0813,30.4511 91.4147,30.7845 89.5,30.5C 89.5,24.8333 89.5,19.1667 89.5,13.5C 91.4147,13.2155 93.0813,13.5489 94.5,14.5 Z"/></g>
<g><path style="opacity:1" fill="#bfd910" d="M 94.5,14.5 C 95.8333,17.1667 97.1667,17.1667 98.5,14.5C 99.8333,14.5 101.167,14.5 102.5,14.5C 102.5,19.5 102.5,24.5 102.5,29.5C 101.167,29.5 99.8333,29.5 98.5,29.5C 98.6633,27.1432 98.4966,24.8098 98,22.5C 97.3946,24.4812 96.3946,24.8146 95,23.5C 94.5045,25.4727 94.3379,27.4727 94.5,29.5C 93.1667,29.5 91.8333,29.5 90.5,29.5C 90.5,24.5 90.5,19.5 90.5,14.5C 91.8333,14.5 93.1667,14.5 94.5,14.5 Z"/></g>
<g><path style="opacity:1" fill="#6d7c0a" d="M 98.5,14.5 C 99.9187,13.5489 101.585,13.2155 103.5,13.5C 103.5,19.1667 103.5,24.8333 103.5,30.5C 101.585,30.7845 99.9187,30.4511 98.5,29.5C 99.8333,29.5 101.167,29.5 102.5,29.5C 102.5,24.5 102.5,19.5 102.5,14.5C 101.167,14.5 99.8333,14.5 98.5,14.5 Z"/></g>
<g><path style="opacity:1" fill="#aac20f" d="M 109.5,13.5 C 110.675,13.281 111.675,13.6143 112.5,14.5C 108.862,20.2413 108.529,26.2413 111.5,32.5C 111,32.8333 110.5,33.1667 110,33.5C 106.614,31.0581 105.114,27.7248 105.5,23.5C 105.19,19.4606 106.523,16.1273 109.5,13.5 Z"/></g>
<g><path style="opacity:1" fill="#abc30f" d="M 136.5,15.5 C 137.386,14.2241 138.386,14.2241 139.5,15.5C 138.575,16.5624 137.575,16.5624 136.5,15.5 Z"/></g>
<g><path style="opacity:1" fill="#afc70f" d="M 141.5,13.5 C 143.39,13.2965 144.89,13.9632 146,15.5C 149.333,20.8333 149.333,26.1667 146,31.5C 144.867,33.2112 143.367,33.7112 141.5,33C 145.475,26.4403 145.475,19.9403 141.5,13.5 Z"/></g>
<g><path style="opacity:1" fill="#adc50f" d="M 114.5,14.5 C 116.975,14.7467 116.975,15.4134 114.5,16.5C 113.537,16.0302 113.537,15.3635 114.5,14.5 Z"/></g>
<g><path style="opacity:1" fill="#b1ca11" d="M 75.5,20.5 C 75.5,23.5 75.5,26.5 75.5,29.5C 74.1667,29.5 72.8333,29.5 71.5,29.5C 69.1707,31.0024 67.8373,30.3357 67.5,27.5C 67.5,26.5 67.5,25.5 67.5,24.5C 68.347,23.0337 69.6803,22.2004 71.5,22C 70.2068,21.51 68.8734,21.3433 67.5,21.5C 67.1547,18.512 68.488,17.1787 71.5,17.5C 73.9818,17.1104 75.3152,18.1104 75.5,20.5 Z"/></g>
<g><path style="opacity:1" fill="#bbd510" d="M 83.5,17.5 C 85.3797,17.2291 86.713,17.8958 87.5,19.5C 87.5,22.8333 87.5,26.1667 87.5,29.5C 86.1667,29.5 84.8333,29.5 83.5,29.5C 83.8064,26.6146 83.4731,23.9479 82.5,21.5C 81.5269,23.9479 81.1936,26.6146 81.5,29.5C 80.5,29.5 79.5,29.5 78.5,29.5C 78.5,25.8333 78.5,22.1667 78.5,18.5C 80.4147,18.7845 82.0813,18.4511 83.5,17.5 Z"/></g>
<g><path style="opacity:1" fill="#bdd710" d="M 30.5,17.5 C 30.5,21.5 30.5,25.5 30.5,29.5C 29.1667,29.5 27.8333,29.5 26.5,29.5C 26.185,25.6286 26.5184,21.9619 27.5,18.5C 28.2389,18.631 28.9056,18.4643 29.5,18C 28.2528,16.5064 28.2528,15.0064 29.5,13.5C 30.4287,14.6888 30.762,16.0222 30.5,17.5 Z"/></g>
<g><path style="opacity:1" fill="#404a06" d="M 30.5,17.5 C 31.4849,21.6344 31.8182,25.9677 31.5,30.5C 29.5853,30.7845 27.9187,30.4511 26.5,29.5C 27.8333,29.5 29.1667,29.5 30.5,29.5C 30.5,25.5 30.5,21.5 30.5,17.5 Z"/></g>
<g><path style="opacity:1" fill="#bed810" d="M 41.5,18.5 C 42.4816,21.9619 42.815,25.6286 42.5,29.5C 41.1667,29.5 39.8333,29.5 38.5,29.5C 38.3345,25.4862 38.5012,21.4862 39,17.5C 39.6708,18.2524 40.5041,18.5858 41.5,18.5 Z"/></g>
<g><path style="opacity:1" fill="#627009" d="M 38.5,29.5 C 39.8333,29.5 41.1667,29.5 42.5,29.5C 42.815,25.6286 42.4816,21.9619 41.5,18.5C 40.5876,17.2618 40.4209,15.9285 41,14.5C 41.6667,13.1667 42.3333,13.1667 43,14.5C 43.4994,19.8229 43.666,25.1563 43.5,30.5C 41.5853,30.7845 39.9187,30.4511 38.5,29.5 Z"/></g>
<g><path style="opacity:1" fill="#aec710" d="M 44.5,17.5 C 54.221,15.6283 57.3877,19.295 54,28.5C 52.8904,30.0368 51.3904,30.7035 49.5,30.5C 49.5,31.5 49.5,32.5 49.5,33.5C 47.8333,33.5 46.1667,33.5 44.5,33.5C 44.5,28.1667 44.5,22.8333 44.5,17.5 Z"/></g>
<g><path style="opacity:1" fill="#8ea20c" d="M 83.5,17.5 C 82.0813,18.4511 80.4147,18.7845 78.5,18.5C 78.5,22.1667 78.5,25.8333 78.5,29.5C 79.5,29.5 80.5,29.5 81.5,29.5C 81.1936,26.6146 81.5269,23.9479 82.5,21.5C 82.5,24.5 82.5,27.5 82.5,30.5C 80.8333,30.5 79.1667,30.5 77.5,30.5C 77.5,26.1667 77.5,21.8333 77.5,17.5C 79.5,17.5 81.5,17.5 83.5,17.5 Z"/></g>
<g><path style="opacity:1" fill="#576407" d="M 19.5,21.5 C 19.5,24.5 19.5,27.5 19.5,30.5C 17.5853,30.7845 15.9187,30.4511 14.5,29.5C 15.8333,29.5 17.1667,29.5 18.5,29.5C 18.1936,26.6146 18.5269,23.9479 19.5,21.5 Z"/></g>
<g><path style="opacity:1" fill="#2e3505" d="M 27.5,18.5 C 26.5184,21.9619 26.185,25.6286 26.5,29.5C 25.8333,29.5 25.1667,29.5 24.5,29.5C 24.5,26.5 24.5,23.5 24.5,20.5C 25.1577,19.6016 25.8243,18.6016 26.5,17.5C 27.1067,17.6236 27.44,17.9569 27.5,18.5 Z"/></g>
<g><path style="opacity:1" fill="#677609" d="M 75.5,20.5 C 76.4794,23.6248 76.8128,26.9581 76.5,30.5C 74.5853,30.7845 72.9187,30.4511 71.5,29.5C 72.8333,29.5 74.1667,29.5 75.5,29.5C 75.5,26.5 75.5,23.5 75.5,20.5 Z"/></g>
<g><path style="opacity:1" fill="#596508" d="M 87.5,19.5 C 88.4816,22.9619 88.815,26.6286 88.5,30.5C 86.5853,30.7845 84.9187,30.4511 83.5,29.5C 84.8333,29.5 86.1667,29.5 87.5,29.5C 87.5,26.1667 87.5,22.8333 87.5,19.5 Z"/></g>
<g><path style="opacity:1" fill="#93a70e" d="M 123.5,19.5 C 125.857,19.3367 128.19,19.5034 130.5,20C 127.853,27.2202 125.52,27.0535 123.5,19.5 Z"/></g>
<g><path style="opacity:1" fill="#505b07" d="M 65.5,22.5 C 66.1667,23.1667 66.8333,23.8333 67.5,24.5C 67.5,25.5 67.5,26.5 67.5,27.5C 66.8333,27.5 66.1667,27.5 65.5,27.5C 65.5,25.8333 65.5,24.1667 65.5,22.5 Z"/></g>
</svg>
